<mxfile host="app.diagrams.net" modified="2021-08-20T09:07:25.031Z" agent="5.0 (Windows)" etag="LeQ3ldqvFPtZb7dkCNJn" version="14.9.8" type="github" pages="2">
  <diagram id="C5RBs43oDa-KdzZeNtuy" name="Page-1">
    <mxGraphModel dx="1422" dy="781" grid="0" gridSize="10" guides="1" tooltips="1" connect="1" arrows="1" fold="1" page="1" pageScale="1" pageWidth="827" pageHeight="1169" math="0" shadow="0">
      <root>
        <mxCell id="WIyWlLk6GJQsqaUBKTNV-0" />
        <mxCell id="WIyWlLk6GJQsqaUBKTNV-1" parent="WIyWlLk6GJQsqaUBKTNV-0" />
        <mxCell id="BE2temR-fq-hZpaHyCqO-7" value="IMathOperation" style="swimlane;fontStyle=1;align=center;verticalAlign=top;childLayout=stackLayout;horizontal=1;startSize=26;horizontalStack=0;resizeParent=1;resizeParentMax=0;resizeLast=0;collapsible=1;marginBottom=0;" vertex="1" parent="WIyWlLk6GJQsqaUBKTNV-1">
          <mxGeometry x="155" y="69" width="280" height="90" as="geometry" />
        </mxCell>
        <mxCell id="BE2temR-fq-hZpaHyCqO-9" value="" style="line;strokeWidth=1;fillColor=none;align=left;verticalAlign=middle;spacingTop=-1;spacingLeft=3;spacingRight=3;rotatable=0;labelPosition=right;points=[];portConstraint=eastwest;" vertex="1" parent="BE2temR-fq-hZpaHyCqO-7">
          <mxGeometry y="26" width="280" height="8" as="geometry" />
        </mxCell>
        <mxCell id="BE2temR-fq-hZpaHyCqO-10" value="+ void SetOperands(int, int)&#xa;+ int Calculate()&#xa;" style="text;strokeColor=none;fillColor=none;align=left;verticalAlign=top;spacingLeft=4;spacingRight=4;overflow=hidden;rotatable=0;points=[[0,0.5],[1,0.5]];portConstraint=eastwest;" vertex="1" parent="BE2temR-fq-hZpaHyCqO-7">
          <mxGeometry y="34" width="280" height="56" as="geometry" />
        </mxCell>
        <mxCell id="BE2temR-fq-hZpaHyCqO-20" style="edgeStyle=orthogonalEdgeStyle;rounded=0;orthogonalLoop=1;jettySize=auto;html=1;exitX=0.5;exitY=0;exitDx=0;exitDy=0;entryX=0.5;entryY=1;entryDx=0;entryDy=0;" edge="1" parent="WIyWlLk6GJQsqaUBKTNV-1" source="BE2temR-fq-hZpaHyCqO-11" target="BE2temR-fq-hZpaHyCqO-7">
          <mxGeometry relative="1" as="geometry" />
        </mxCell>
        <mxCell id="BE2temR-fq-hZpaHyCqO-11" value="AddOperation" style="swimlane;fontStyle=1;align=center;verticalAlign=top;childLayout=stackLayout;horizontal=1;startSize=26;horizontalStack=0;resizeParent=1;resizeParentMax=0;resizeLast=0;collapsible=1;marginBottom=0;" vertex="1" parent="WIyWlLk6GJQsqaUBKTNV-1">
          <mxGeometry x="81" y="258" width="160" height="140" as="geometry" />
        </mxCell>
        <mxCell id="BE2temR-fq-hZpaHyCqO-12" value="- int _a&#xa;- int _b&#xa;" style="text;strokeColor=none;fillColor=none;align=left;verticalAlign=top;spacingLeft=4;spacingRight=4;overflow=hidden;rotatable=0;points=[[0,0.5],[1,0.5]];portConstraint=eastwest;" vertex="1" parent="BE2temR-fq-hZpaHyCqO-11">
          <mxGeometry y="26" width="160" height="46" as="geometry" />
        </mxCell>
        <mxCell id="BE2temR-fq-hZpaHyCqO-13" value="" style="line;strokeWidth=1;fillColor=none;align=left;verticalAlign=middle;spacingTop=-1;spacingLeft=3;spacingRight=3;rotatable=0;labelPosition=right;points=[];portConstraint=eastwest;" vertex="1" parent="BE2temR-fq-hZpaHyCqO-11">
          <mxGeometry y="72" width="160" height="8" as="geometry" />
        </mxCell>
        <mxCell id="BE2temR-fq-hZpaHyCqO-14" value="+ void SetOperands(int, int)&#xa;+ int Calculate()&#xa;&#xa;&#xa;" style="text;strokeColor=none;fillColor=none;align=left;verticalAlign=top;spacingLeft=4;spacingRight=4;overflow=hidden;rotatable=0;points=[[0,0.5],[1,0.5]];portConstraint=eastwest;" vertex="1" parent="BE2temR-fq-hZpaHyCqO-11">
          <mxGeometry y="80" width="160" height="60" as="geometry" />
        </mxCell>
        <mxCell id="BE2temR-fq-hZpaHyCqO-25" style="edgeStyle=orthogonalEdgeStyle;rounded=0;orthogonalLoop=1;jettySize=auto;html=1;entryX=0.504;entryY=1.018;entryDx=0;entryDy=0;entryPerimeter=0;" edge="1" parent="WIyWlLk6GJQsqaUBKTNV-1" source="BE2temR-fq-hZpaHyCqO-21" target="BE2temR-fq-hZpaHyCqO-10">
          <mxGeometry relative="1" as="geometry" />
        </mxCell>
        <mxCell id="BE2temR-fq-hZpaHyCqO-21" value="MultiplyOperation" style="swimlane;fontStyle=1;align=center;verticalAlign=top;childLayout=stackLayout;horizontal=1;startSize=26;horizontalStack=0;resizeParent=1;resizeParentMax=0;resizeLast=0;collapsible=1;marginBottom=0;" vertex="1" parent="WIyWlLk6GJQsqaUBKTNV-1">
          <mxGeometry x="334" y="258" width="160" height="140" as="geometry" />
        </mxCell>
        <mxCell id="BE2temR-fq-hZpaHyCqO-22" value="- int _a&#xa;- int _b&#xa;" style="text;strokeColor=none;fillColor=none;align=left;verticalAlign=top;spacingLeft=4;spacingRight=4;overflow=hidden;rotatable=0;points=[[0,0.5],[1,0.5]];portConstraint=eastwest;" vertex="1" parent="BE2temR-fq-hZpaHyCqO-21">
          <mxGeometry y="26" width="160" height="46" as="geometry" />
        </mxCell>
        <mxCell id="BE2temR-fq-hZpaHyCqO-23" value="" style="line;strokeWidth=1;fillColor=none;align=left;verticalAlign=middle;spacingTop=-1;spacingLeft=3;spacingRight=3;rotatable=0;labelPosition=right;points=[];portConstraint=eastwest;" vertex="1" parent="BE2temR-fq-hZpaHyCqO-21">
          <mxGeometry y="72" width="160" height="8" as="geometry" />
        </mxCell>
        <mxCell id="BE2temR-fq-hZpaHyCqO-24" value="+ void SetOperands(int, int)&#xa;+ int Calculate()&#xa;&#xa;&#xa;" style="text;strokeColor=none;fillColor=none;align=left;verticalAlign=top;spacingLeft=4;spacingRight=4;overflow=hidden;rotatable=0;points=[[0,0.5],[1,0.5]];portConstraint=eastwest;" vertex="1" parent="BE2temR-fq-hZpaHyCqO-21">
          <mxGeometry y="80" width="160" height="60" as="geometry" />
        </mxCell>
      </root>
    </mxGraphModel>
  </diagram>
  <diagram id="43k8RW1OA9o0gCVhY2fS" name="Page-2">
    <mxGraphModel dx="1422" dy="781" grid="0" gridSize="10" guides="1" tooltips="1" connect="1" arrows="1" fold="1" page="1" pageScale="1" pageWidth="827" pageHeight="1169" math="0" shadow="0">
      <root>
        <mxCell id="CzUpVHc_vLhUC_1OeYiV-0" />
        <mxCell id="CzUpVHc_vLhUC_1OeYiV-1" parent="CzUpVHc_vLhUC_1OeYiV-0" />
        <mxCell id="CzUpVHc_vLhUC_1OeYiV-2" value="IVehicle" style="swimlane;fontStyle=1;align=center;verticalAlign=top;childLayout=stackLayout;horizontal=1;startSize=26;horizontalStack=0;resizeParent=1;resizeParentMax=0;resizeLast=0;collapsible=1;marginBottom=0;" vertex="1" parent="CzUpVHc_vLhUC_1OeYiV-1">
          <mxGeometry x="155" y="69" width="280" height="90" as="geometry" />
        </mxCell>
        <mxCell id="CzUpVHc_vLhUC_1OeYiV-3" value="" style="line;strokeWidth=1;fillColor=none;align=left;verticalAlign=middle;spacingTop=-1;spacingLeft=3;spacingRight=3;rotatable=0;labelPosition=right;points=[];portConstraint=eastwest;" vertex="1" parent="CzUpVHc_vLhUC_1OeYiV-2">
          <mxGeometry y="26" width="280" height="8" as="geometry" />
        </mxCell>
        <mxCell id="CzUpVHc_vLhUC_1OeYiV-4" value="+ int GetTyresCount()&#xa;+ string GetVehicleType()&#xa;" style="text;strokeColor=none;fillColor=none;align=left;verticalAlign=top;spacingLeft=4;spacingRight=4;overflow=hidden;rotatable=0;points=[[0,0.5],[1,0.5]];portConstraint=eastwest;" vertex="1" parent="CzUpVHc_vLhUC_1OeYiV-2">
          <mxGeometry y="34" width="280" height="56" as="geometry" />
        </mxCell>
        <mxCell id="CzUpVHc_vLhUC_1OeYiV-5" style="edgeStyle=orthogonalEdgeStyle;rounded=0;orthogonalLoop=1;jettySize=auto;html=1;exitX=0.5;exitY=0;exitDx=0;exitDy=0;entryX=0.5;entryY=1;entryDx=0;entryDy=0;" edge="1" parent="CzUpVHc_vLhUC_1OeYiV-1" source="CzUpVHc_vLhUC_1OeYiV-6" target="CzUpVHc_vLhUC_1OeYiV-2">
          <mxGeometry relative="1" as="geometry" />
        </mxCell>
        <mxCell id="CzUpVHc_vLhUC_1OeYiV-6" value="Bike" style="swimlane;fontStyle=1;align=center;verticalAlign=top;childLayout=stackLayout;horizontal=1;startSize=26;horizontalStack=0;resizeParent=1;resizeParentMax=0;resizeLast=0;collapsible=1;marginBottom=0;" vertex="1" parent="CzUpVHc_vLhUC_1OeYiV-1">
          <mxGeometry x="81" y="258" width="160" height="140" as="geometry" />
        </mxCell>
        <mxCell id="CzUpVHc_vLhUC_1OeYiV-7" value="&#xa;" style="text;strokeColor=none;fillColor=none;align=left;verticalAlign=top;spacingLeft=4;spacingRight=4;overflow=hidden;rotatable=0;points=[[0,0.5],[1,0.5]];portConstraint=eastwest;" vertex="1" parent="CzUpVHc_vLhUC_1OeYiV-6">
          <mxGeometry y="26" width="160" height="46" as="geometry" />
        </mxCell>
        <mxCell id="CzUpVHc_vLhUC_1OeYiV-8" value="" style="line;strokeWidth=1;fillColor=none;align=left;verticalAlign=middle;spacingTop=-1;spacingLeft=3;spacingRight=3;rotatable=0;labelPosition=right;points=[];portConstraint=eastwest;" vertex="1" parent="CzUpVHc_vLhUC_1OeYiV-6">
          <mxGeometry y="72" width="160" height="8" as="geometry" />
        </mxCell>
        <mxCell id="CzUpVHc_vLhUC_1OeYiV-9" value="+ int GetTyresCount()&#xa;+ string GetVehicleType()&#xa;&#xa;&#xa;" style="text;strokeColor=none;fillColor=none;align=left;verticalAlign=top;spacingLeft=4;spacingRight=4;overflow=hidden;rotatable=0;points=[[0,0.5],[1,0.5]];portConstraint=eastwest;" vertex="1" parent="CzUpVHc_vLhUC_1OeYiV-6">
          <mxGeometry y="80" width="160" height="60" as="geometry" />
        </mxCell>
        <mxCell id="CzUpVHc_vLhUC_1OeYiV-10" style="edgeStyle=orthogonalEdgeStyle;rounded=0;orthogonalLoop=1;jettySize=auto;html=1;entryX=0.504;entryY=1.018;entryDx=0;entryDy=0;entryPerimeter=0;" edge="1" parent="CzUpVHc_vLhUC_1OeYiV-1" source="CzUpVHc_vLhUC_1OeYiV-11" target="CzUpVHc_vLhUC_1OeYiV-4">
          <mxGeometry relative="1" as="geometry" />
        </mxCell>
        <mxCell id="CzUpVHc_vLhUC_1OeYiV-11" value="Car" style="swimlane;fontStyle=1;align=center;verticalAlign=top;childLayout=stackLayout;horizontal=1;startSize=26;horizontalStack=0;resizeParent=1;resizeParentMax=0;resizeLast=0;collapsible=1;marginBottom=0;" vertex="1" parent="CzUpVHc_vLhUC_1OeYiV-1">
          <mxGeometry x="334" y="258" width="160" height="140" as="geometry" />
        </mxCell>
        <mxCell id="CzUpVHc_vLhUC_1OeYiV-12" value="&#xa;" style="text;strokeColor=none;fillColor=none;align=left;verticalAlign=top;spacingLeft=4;spacingRight=4;overflow=hidden;rotatable=0;points=[[0,0.5],[1,0.5]];portConstraint=eastwest;" vertex="1" parent="CzUpVHc_vLhUC_1OeYiV-11">
          <mxGeometry y="26" width="160" height="46" as="geometry" />
        </mxCell>
        <mxCell id="CzUpVHc_vLhUC_1OeYiV-13" value="" style="line;strokeWidth=1;fillColor=none;align=left;verticalAlign=middle;spacingTop=-1;spacingLeft=3;spacingRight=3;rotatable=0;labelPosition=right;points=[];portConstraint=eastwest;" vertex="1" parent="CzUpVHc_vLhUC_1OeYiV-11">
          <mxGeometry y="72" width="160" height="8" as="geometry" />
        </mxCell>
        <mxCell id="CzUpVHc_vLhUC_1OeYiV-14" value="+ int GetTyresCount()&#xa;+ string GetVehicleType()&#xa;&#xa;&#xa;" style="text;strokeColor=none;fillColor=none;align=left;verticalAlign=top;spacingLeft=4;spacingRight=4;overflow=hidden;rotatable=0;points=[[0,0.5],[1,0.5]];portConstraint=eastwest;" vertex="1" parent="CzUpVHc_vLhUC_1OeYiV-11">
          <mxGeometry y="80" width="160" height="60" as="geometry" />
        </mxCell>
      </root>
    </mxGraphModel>
  </diagram>
</mxfile>
